# xmcd
#
# Track frame offsets:
#	150
#	15728
#	31867
#	50124
#	58983
#	77547
#	86065
#	100011
#	111021
#	121772
#	143515
#	154657
#	168662
#
# Disc length: 2457 seconds
#
# Revision: 0
# Processed by: cddbd v1.5.2PL0 Copyright (c) Steve Scherf et al.
# Submitted via: dBpowerAMP V4.0
#
DISCID=9f09970d
DTITLE=dead cowboys - comings and goings
DYEAR=2001
DGENRE=Country
TTITLE0=I Gotta Go
TTITLE1=rubberboy
TTITLE2=ramblin' man
TTITLE3=fight in a bar room
TTITLE4=dark country
TTITLE5=sad smile
TTITLE6=7.9.11
TTITLE7=dear john
TTITLE8=taillights
TTITLE9=I got the word
TTITLE10=hotwire
TTITLE11=hungry moon
TTITLE12=upside down
EXTD=
EXTT0=
EXTT1=
EXTT2=
EXTT3=
EXTT4=
EXTT5=
EXTT6=
EXTT7=
EXTT8=
EXTT9=
EXTT10=
EXTT11=
EXTT12=
PLAYORDER=
